{"glyphs":{":":{"x_min":0,"x_max":207,"ha":207,"o":"m 103 475 b 76 475 55 454 55 427 b 55 401 76 380 103 380 b 132 380 151 401 151 427 b 151 454 132 475 103 475 z m 103 84 b 76 84 55 63 55 37 b 55 10 76 -11 103 -11 b 132 -11 151 10 151 37 b 151 63 132 84 103 84 z"},"$":{"x_min":0,"x_max":526,"ha":526,"o":"m 472 182 b 472 299 399 341 279 379 b 160 415 125 445 125 513 b 125 583 181 625 261 625 b 323 625 369 608 416 564 l 451 601 b 406 642 359 668 289 674 l 289 819 l 238 819 l 238 674 b 134 666 65 600 65 511 b 65 417 122 371 254 329 b 373 292 412 260 412 180 b 412 90 344 39 250 39 b 173 39 119 67 74 109 l 39 72 b 90 23 154 -8 238 -11 l 238 -151 l 289 -151 l 289 -9 b 402 5 472 79 472 182 z"},"?":{"x_min":0,"x_max":447,"ha":447,"o":"m 234 696 b 155 696 95 666 41 604 l 81 572 b 126 623 171 646 231 646 b 301 646 346 608 346 547 b 346 425 167 445 167 277 l 167 218 l 224 218 l 224 273 b 224 417 407 397 407 550 b 407 628 345 696 234 696 z m 198 84 b 170 84 150 63 150 37 b 150 10 170 -11 198 -11 b 226 -11 246 10 246 37 b 246 63 226 84 198 84 z"},"<":{"x_min":0,"x_max":497,"ha":497,"o":"m 412 529 l 64 360 l 64 306 l 412 135 l 433 183 l 115 333 l 433 480 z"},"'":{"x_min":0,"x_max":204,"ha":204,"o":"m 80 434 l 124 434 l 133 685 l 71 685 z"},"=":{"x_min":0,"x_max":493,"ha":493,"o":"m 69 393 l 424 393 l 424 444 l 69 444 z m 69 218 l 424 218 l 424 269 l 69 269 z"},"a":{"x_min":0,"x_max":536,"ha":536,"o":"m 431 116 l 431 368 b 431 475 379 534 260 534 b 205 534 153 522 95 499 l 110 455 b 162 474 210 485 252 485 b 339 485 373 448 373 365 l 373 315 l 273 315 b 139 315 56 255 56 145 b 56 52 117 -11 218 -11 b 288 -11 343 18 381 76 b 389 22 416 -1 462 -11 l 475 30 b 447 41 431 58 431 116 z m 228 36 b 159 36 118 76 118 148 b 118 231 177 272 282 272 l 373 272 l 373 130 b 341 69 295 36 228 36 z"},"L":{"x_min":0,"x_max":477,"ha":477,"o":"m 171 685 l 111 685 l 111 0 l 449 0 l 457 54 l 171 54 z"},"3":{"x_min":0,"x_max":486,"ha":486,"o":"m 221 676 b 148 676 91 651 39 601 l 70 565 b 118 609 162 627 218 627 b 295 627 346 581 346 507 b 346 416 279 374 209 374 l 177 374 l 169 327 l 213 327 b 303 327 363 288 363 187 b 363 99 307 38 209 38 b 151 38 104 57 57 108 l 20 75 b 70 18 133 -11 211 -11 b 340 -11 423 72 423 188 b 423 293 356 350 272 354 b 347 367 404 420 404 510 b 404 603 337 676 221 676 z"},";":{"x_min":0,"x_max":207,"ha":207,"o":"m 103 475 b 76 475 55 454 55 427 b 55 401 76 380 103 380 b 132 380 151 401 151 427 b 151 454 132 475 103 475 z m 103 84 b 76 84 55 63 55 37 b 55 19 64 4 78 -4 l 38 -151 l 80 -151 l 136 -18 b 145 2 151 20 151 37 b 151 63 132 84 103 84 z"},"J":{"x_min":0,"x_max":291,"ha":291,"o":"m 185 685 l 125 685 l 125 95 b 125 2 104 -35 13 -75 l 29 -119 b 141 -76 185 -30 185 92 z"},"V":{"x_min":0,"x_max":546,"ha":546,"o":"m 530 685 l 468 685 l 274 62 l 81 685 l 16 685 l 240 0 l 307 0 z"},"\"":{"x_min":0,"x_max":362,"ha":362,"o":"m 80 434 l 124 434 l 133 685 l 71 685 z m 238 434 l 282 434 l 291 685 l 229 685 z"},"7":{"x_min":0,"x_max":437,"ha":437,"o":"m 401 665 l 30 665 l 30 616 l 341 616 l 85 10 l 139 -8 l 401 620 z"},"S":{"x_min":0,"x_max":539,"ha":539,"o":"m 267 696 b 147 696 66 625 66 528 b 66 429 125 382 261 340 b 383 302 424 268 424 185 b 424 93 353 40 257 40 b 177 40 124 69 74 113 l 39 75 b 95 22 164 -11 258 -11 b 396 -11 485 70 485 187 b 485 308 410 352 287 390 b 164 427 127 459 127 529 b 127 601 185 645 269 645 b 332 645 378 626 429 582 l 464 620 b 410 668 356 696 267 696 z"},"}":{"x_min":0,"x_max":326,"ha":326,"o":"m 64 828 l 64 784 b 127 784 152 760 152 705 l 152 451 b 152 382 177 362 227 349 b 177 336 152 317 152 247 l 152 -6 b 152 -61 127 -85 64 -85 l 64 -129 b 161 -129 206 -92 206 -4 l 206 251 b 206 305 232 324 282 324 l 282 374 b 232 374 206 394 206 448 l 206 703 b 206 791 161 828 64 828 z"},"Z":{"x_min":0,"x_max":516,"ha":516,"o":"m 468 685 l 73 685 l 73 633 l 402 633 l 35 50 l 35 0 l 454 0 l 462 53 l 104 53 l 468 636 z"},"x":{"x_min":0,"x_max":459,"ha":459,"o":"m 264 280 l 425 523 l 359 523 l 230 314 l 102 523 l 34 523 l 194 278 l 10 0 l 77 0 l 227 243 l 378 0 l 448 0 z"},")":{"x_min":0,"x_max":324,"ha":324,"o":"m 91 837 l 54 813 b 143 681 210 568 210 350 b 210 133 143 19 54 -113 l 91 -137 b 188 -1 270 117 270 350 b 270 583 188 701 91 837 z"},"&":{"x_min":0,"x_max":743,"ha":743,"o":"m 301 696 b 198 696 133 630 133 544 b 133 474 169 432 234 370 b 145 318 90 261 90 171 b 90 61 181 -11 300 -11 b 404 -11 471 31 524 94 l 636 -11 l 679 23 l 555 137 b 590 195 618 262 640 346 l 585 362 b 569 289 547 229 519 172 l 314 364 b 409 417 467 467 467 548 b 467 634 399 696 301 696 z m 301 651 b 363 651 410 613 410 546 b 410 486 366 443 280 396 b 210 463 191 495 191 545 b 191 603 232 651 301 651 z m 269 338 l 488 127 b 442 71 388 37 305 37 b 215 37 150 91 150 173 b 150 242 191 291 269 338 z"},"_":{"x_min":0,"x_max":520,"ha":520,"o":"m 29 -122 l 492 -122 l 492 -71 l 29 -71 z"},"v":{"x_min":0,"x_max":470,"ha":470,"o":"m 455 523 l 393 523 l 238 51 l 79 523 l 15 523 l 202 0 l 274 0 z"},"O":{"x_min":0,"x_max":691,"ha":691,"o":"m 345 696 b 181 696 66 567 66 341 b 66 113 180 -11 345 -11 b 515 -11 625 117 625 342 b 625 573 512 696 345 696 z m 345 645 b 477 645 562 550 562 342 b 562 136 479 40 345 40 b 218 40 129 136 129 341 b 129 549 216 645 345 645 z"},"(":{"x_min":0,"x_max":324,"ha":324,"o":"m 233 837 b 136 701 54 583 54 350 b 54 117 136 -1 233 -137 l 270 -113 b 181 19 114 133 114 350 b 114 568 181 681 270 813 z"},"C":{"x_min":0,"x_max":550,"ha":550,"o":"m 343 696 b 191 696 66 577 66 343 b 66 112 184 -11 342 -11 b 427 -11 487 21 527 60 l 495 100 b 455 68 415 42 344 42 b 224 42 129 135 129 343 b 129 561 228 645 347 645 b 403 645 441 629 487 593 l 519 633 b 470 673 424 696 343 696 z"},"W":{"x_min":0,"x_max":810,"ha":810,"o":"m 779 685 l 722 685 l 591 55 l 438 685 l 371 685 l 221 55 l 91 685 l 30 685 l 181 0 l 254 0 l 404 618 l 554 0 l 629 0 z"},"A":{"x_min":0,"x_max":565,"ha":565,"o":"m 485 0 l 548 0 l 320 685 l 245 685 l 16 0 l 77 0 l 137 187 l 425 187 z m 153 238 l 282 636 l 409 238 z"},"f":{"x_min":0,"x_max":321,"ha":321,"o":"m 260 695 b 293 695 325 687 359 672 l 379 715 b 340 733 302 743 257 743 b 166 743 112 691 112 609 l 112 523 l 21 523 l 21 476 l 112 476 l 112 0 l 170 0 l 170 476 l 300 476 l 308 523 l 170 523 l 170 607 b 170 669 201 695 260 695 z"},"Q":{"x_min":0,"x_max":681,"ha":681,"o":"m 452 24 b 553 61 625 154 625 342 b 625 573 512 696 345 696 b 181 696 66 567 66 341 b 66 113 180 -9 345 -9 b 467 -9 535 -27 609 -93 l 649 -42 b 596 1 527 23 452 24 z m 129 341 b 129 549 216 645 345 645 b 477 645 562 550 562 342 b 562 136 479 40 345 40 b 218 40 129 136 129 341 z"},"w":{"x_min":0,"x_max":698,"ha":698,"o":"m 673 523 l 616 523 l 505 44 l 385 523 l 319 523 l 197 45 l 85 523 l 25 523 l 156 0 l 233 0 l 351 469 l 467 0 l 545 0 z"},"-":{"x_min":0,"x_max":401,"ha":401,"o":"m 68 288 l 333 288 l 333 338 l 68 338 z"},"E":{"x_min":0,"x_max":512,"ha":512,"o":"m 459 685 l 111 685 l 111 0 l 466 0 l 466 50 l 171 50 l 171 330 l 414 330 l 414 380 l 171 380 l 171 635 l 452 635 z"},"s":{"x_min":0,"x_max":464,"ha":464,"o":"m 234 534 b 135 534 60 477 60 397 b 60 324 105 283 216 254 b 325 224 354 201 354 138 b 354 74 301 38 225 38 b 161 38 115 58 71 93 l 39 56 b 84 18 141 -11 226 -11 b 330 -11 415 44 415 141 b 415 230 361 269 247 299 b 153 324 120 346 120 398 b 120 452 167 486 236 486 b 289 486 328 470 374 438 l 401 476 b 352 514 301 534 234 534 z"},">":{"x_min":0,"x_max":497,"ha":497,"o":"m 85 529 l 64 480 l 381 333 l 64 183 l 85 135 l 433 306 l 433 360 z"},"l":{"x_min":0,"x_max":284,"ha":284,"o":"m 193 -11 b 215 -11 237 -5 253 3 l 237 46 b 226 41 214 39 201 39 b 172 39 159 56 159 90 l 159 743 l 101 736 l 101 88 b 101 21 138 -11 193 -11 z"},"8":{"x_min":0,"x_max":538,"ha":538,"o":"m 336 353 b 418 394 457 440 457 511 b 457 621 364 676 269 676 b 173 676 82 617 82 510 b 82 436 118 392 196 356 b 105 321 53 261 53 172 b 53 64 137 -11 267 -11 b 395 -11 485 62 485 173 b 485 262 436 312 336 353 z m 140 509 b 140 587 195 630 269 630 b 346 630 399 586 399 509 b 399 447 367 407 294 369 l 263 380 b 174 413 140 444 140 509 z m 268 38 b 176 38 114 85 114 172 b 114 253 152 304 242 339 l 276 326 b 381 287 424 254 424 173 b 424 87 361 38 268 38 z"},"\\":{"x_min":0,"x_max":520,"ha":520,"o":"m 169 803 l 119 791 l 350 -100 l 401 -87 z"},"e":{"x_min":0,"x_max":538,"ha":538,"o":"m 477 281 b 477 435 409 534 273 534 b 145 534 64 424 64 257 b 64 89 148 -11 286 -11 b 355 -11 408 13 457 53 l 430 90 b 384 56 346 38 289 38 b 199 38 133 97 126 239 l 475 239 b 476 249 477 265 477 281 z m 420 284 l 125 284 b 132 425 194 486 275 486 b 374 486 420 413 420 299 z"},"b":{"x_min":0,"x_max":581,"ha":581,"o":"m 321 534 b 253 534 201 501 164 450 l 164 743 l 106 736 l 106 0 l 157 0 l 162 66 b 196 22 247 -11 313 -11 b 439 -11 512 96 512 264 b 512 438 441 534 321 534 z m 302 37 b 243 37 196 71 164 120 l 164 396 b 200 446 242 486 309 486 b 398 486 450 418 450 264 b 450 112 395 37 302 37 z"},"%":{"x_min":0,"x_max":793,"ha":793,"o":"m 610 703 l 147 4 l 189 -24 l 653 676 z m 203 676 b 113 676 53 612 53 513 b 53 414 115 351 203 351 b 293 351 352 415 352 514 b 352 613 291 676 203 676 z m 203 634 b 274 634 298 576 298 514 b 298 450 274 393 203 393 b 132 393 107 451 107 513 b 107 577 132 634 203 634 z m 590 314 b 500 314 441 251 441 151 b 441 52 503 -11 590 -11 b 681 -11 740 53 740 153 b 740 252 678 314 590 314 z m 590 272 b 662 272 686 214 686 153 b 686 88 662 31 590 31 b 520 31 495 89 495 151 b 495 215 520 272 590 272 z"},"m":{"x_min":0,"x_max":853,"ha":853,"o":"m 616 534 b 546 534 492 492 451 430 b 435 496 389 534 322 534 b 254 534 200 494 161 435 l 156 523 l 106 523 l 106 0 l 164 0 l 164 379 b 203 443 248 487 311 487 b 365 487 400 451 400 366 l 400 0 l 458 0 l 458 379 b 498 443 542 487 605 487 b 659 487 694 451 694 366 l 694 0 l 752 0 l 752 374 b 752 473 700 534 616 534 z"},"#":{"x_min":0,"x_max":503,"ha":503,"o":"m 488 452 l 488 499 l 416 499 l 438 665 l 384 665 l 362 499 l 183 499 l 205 665 l 151 665 l 129 499 l 52 499 l 52 452 l 123 452 l 93 227 l 15 227 l 15 180 l 87 180 l 63 0 l 117 0 l 141 180 l 320 180 l 296 0 l 350 0 l 374 180 l 451 180 l 451 227 l 380 227 l 410 452 z m 326 227 l 147 227 l 177 452 l 356 452 z"},",":{"x_min":0,"x_max":207,"ha":207,"o":"m 103 84 b 76 84 55 63 55 37 b 55 19 64 4 78 -4 l 38 -151 l 80 -151 l 136 -18 b 145 2 151 20 151 37 b 151 63 132 84 103 84 z"},"n":{"x_min":0,"x_max":584,"ha":584,"o":"m 337 534 b 261 534 203 493 161 434 l 156 523 l 106 523 l 106 0 l 164 0 l 164 379 b 207 443 255 487 326 487 b 390 487 425 452 425 366 l 425 0 l 483 0 l 483 374 b 483 475 432 534 337 534 z"},"h":{"x_min":0,"x_max":584,"ha":584,"o":"m 337 534 b 263 534 206 495 164 436 l 164 743 l 106 736 l 106 0 l 164 0 l 164 379 b 207 443 255 487 326 487 b 389 487 425 451 425 366 l 425 0 l 483 0 l 483 374 b 483 473 431 534 337 534 z"},"z":{"x_min":0,"x_max":422,"ha":422,"o":"m 388 523 l 52 523 l 52 473 l 320 473 l 28 45 l 28 0 l 380 0 l 386 50 l 96 50 l 388 478 z"},"B":{"x_min":0,"x_max":598,"ha":598,"o":"m 386 363 b 458 376 512 426 512 514 b 512 630 420 685 264 685 l 111 685 l 111 0 l 298 0 b 448 0 544 59 544 190 b 544 308 469 354 386 363 z m 270 635 b 385 635 451 602 451 510 b 451 430 392 384 309 384 l 171 384 l 171 635 z m 298 50 l 171 50 l 171 336 l 316 336 b 409 336 482 294 482 190 b 482 88 409 50 298 50 z"},"K":{"x_min":0,"x_max":547,"ha":547,"o":"m 530 685 l 461 685 l 175 367 l 474 0 l 547 0 l 246 370 z m 171 685 l 111 685 l 111 0 l 171 0 z"},"R":{"x_min":0,"x_max":590,"ha":590,"o":"m 484 0 l 556 0 l 368 318 b 465 343 521 397 521 499 b 521 620 442 685 277 685 l 111 685 l 111 0 l 171 0 l 171 307 l 308 307 z m 171 356 l 171 636 l 275 636 b 406 636 457 590 457 499 b 457 399 394 356 285 356 z"},"T":{"x_min":0,"x_max":495,"ha":495,"o":"m 485 685 l 15 685 l 15 632 l 218 632 l 218 0 l 277 0 l 277 632 l 478 632 z"},"P":{"x_min":0,"x_max":570,"ha":570,"o":"m 272 685 l 111 685 l 111 0 l 171 0 l 171 267 l 269 267 b 418 267 525 326 525 480 b 525 622 431 685 272 685 z m 269 316 l 171 316 l 171 636 l 271 636 b 391 636 462 595 462 479 b 462 353 383 316 269 316 z"},"|":{"x_min":0,"x_max":407,"ha":407,"o":"m 230 804 l 176 804 l 176 -100 l 230 -100 z"},"t":{"x_min":0,"x_max":341,"ha":341,"o":"m 321 63 b 295 47 270 39 241 39 b 188 39 164 69 164 130 l 164 476 l 292 476 l 299 523 l 164 523 l 164 655 l 106 648 l 106 523 l 18 523 l 18 476 l 106 476 l 106 127 b 106 36 155 -11 234 -11 b 276 -11 312 1 344 22 z"},"M":{"x_min":0,"x_max":778,"ha":778,"o":"m 635 685 l 551 685 l 387 151 l 217 685 l 134 685 l 69 0 l 126 0 l 156 330 b 165 435 176 559 179 627 l 357 81 l 414 81 l 586 627 b 590 564 601 438 612 328 l 643 0 l 701 0 z"},"g":{"x_min":0,"x_max":503,"ha":503,"o":"m 477 568 b 426 547 388 532 248 534 b 133 534 56 462 56 357 b 56 287 84 241 144 210 b 108 187 87 156 87 121 b 87 71 129 29 216 29 l 301 29 b 375 29 419 -2 419 -58 b 419 -120 373 -157 251 -157 b 126 -157 88 -128 87 -55 l 33 -55 b 33 -159 93 -205 251 -205 b 404 -205 478 -149 478 -55 b 478 23 414 79 310 79 l 225 79 b 162 79 142 102 142 133 b 142 157 157 179 182 193 b 202 186 225 183 250 183 b 368 183 439 253 439 355 b 439 427 405 471 350 497 b 413 498 459 502 495 512 z m 248 489 b 337 489 380 438 380 356 b 380 273 333 225 248 225 b 168 225 116 273 116 357 b 116 434 159 489 248 489 z"},"j":{"x_min":0,"x_max":270,"ha":270,"o":"m 134 753 b 108 753 91 734 91 711 b 91 688 108 669 134 669 b 161 669 178 688 178 711 b 178 734 161 753 134 753 z m 164 523 l 106 523 l 106 17 b 106 -99 75 -127 6 -161 l 23 -203 b 118 -159 164 -121 164 19 z"},"i":{"x_min":0,"x_max":270,"ha":270,"o":"m 135 753 b 109 753 91 734 91 711 b 91 688 109 669 135 669 b 161 669 178 688 178 711 b 178 734 161 753 135 753 z m 164 523 l 106 523 l 106 0 l 164 0 z"},"y":{"x_min":0,"x_max":468,"ha":468,"o":"m 452 523 l 391 523 l 236 43 l 78 523 l 15 523 l 197 0 l 217 0 b 184 -92 158 -133 53 -159 l 59 -204 b 187 -179 234 -116 273 -2 z"},"@":{"x_min":0,"x_max":1020,"ha":1020,"o":"m 526 696 b 262 696 85 493 85 242 b 85 -36 268 -205 524 -205 b 614 -205 670 -190 730 -169 l 714 -122 b 660 -142 601 -156 525 -156 b 292 -156 144 0 144 242 b 144 465 294 646 526 646 b 753 646 876 500 876 306 b 876 120 821 59 753 59 b 702 59 670 97 670 190 l 670 448 b 625 471 577 484 525 484 b 408 484 316 403 316 232 b 316 93 388 14 484 14 b 558 14 605 59 632 121 b 644 63 683 12 754 12 b 858 12 935 109 935 308 b 935 514 796 696 526 696 z m 490 60 b 420 60 374 118 374 232 b 374 365 430 439 527 439 b 562 439 589 432 616 419 l 616 166 b 601 118 560 60 490 60 z"},".":{"x_min":0,"x_max":207,"ha":207,"o":"m 103 84 b 76 84 55 63 55 37 b 55 10 76 -11 103 -11 b 132 -11 151 10 151 37 b 151 63 132 84 103 84 z"},"p":{"x_min":0,"x_max":581,"ha":581,"o":"m 322 534 b 254 534 199 500 161 447 l 156 523 l 106 523 l 106 -205 l 164 -197 l 164 61 b 197 19 247 -11 313 -11 b 443 -11 512 99 512 264 b 512 433 451 534 322 534 z m 302 38 b 243 38 196 69 164 118 l 164 396 b 200 446 244 486 311 486 b 402 486 450 413 450 264 b 450 114 398 38 302 38 z"},"X":{"x_min":0,"x_max":512,"ha":512,"o":"m 290 371 l 476 685 l 411 685 l 255 407 l 99 685 l 31 685 l 219 368 l 10 0 l 75 0 l 254 330 l 436 0 l 504 0 z"},"*":{"x_min":0,"x_max":436,"ha":436,"o":"m 402 582 l 384 634 l 239 577 l 246 736 l 189 736 l 197 577 l 51 634 l 34 582 l 186 541 l 87 419 l 133 386 l 218 518 l 303 386 l 349 420 l 250 542 z"},"Y":{"x_min":0,"x_max":523,"ha":523,"o":"m 509 685 l 445 685 l 264 320 l 80 685 l 13 685 l 232 267 l 232 0 l 292 0 l 292 268 z"},"c":{"x_min":0,"x_max":469,"ha":469,"o":"m 285 534 b 151 534 64 426 64 258 b 64 88 152 -11 286 -11 b 345 -11 395 10 436 45 l 408 85 b 371 56 336 40 287 40 b 192 40 126 109 126 259 b 126 410 193 484 288 484 b 336 484 370 470 404 443 l 433 481 b 389 519 344 534 285 534 z"},"!":{"x_min":0,"x_max":240,"ha":240,"o":"m 150 685 l 88 685 l 93 218 l 146 218 z m 120 84 b 93 84 72 63 72 37 b 72 10 93 -11 120 -11 b 148 -11 168 10 168 37 b 168 63 148 84 120 84 z"},"/":{"x_min":0,"x_max":520,"ha":520,"o":"m 351 803 l 119 -87 l 169 -100 l 401 791 z"},"[":{"x_min":0,"x_max":317,"ha":317,"o":"m 251 807 l 84 807 l 84 -112 l 251 -112 l 251 -65 l 138 -65 l 138 759 l 251 759 z"},"6":{"x_min":0,"x_max":524,"ha":524,"o":"m 296 433 b 223 433 167 396 125 334 b 129 506 193 628 305 628 b 343 628 374 617 405 597 l 430 637 b 395 661 357 676 306 676 b 157 676 66 532 66 300 b 66 125 122 -11 277 -11 b 389 -11 473 78 473 224 b 473 366 392 433 296 433 z m 277 37 b 171 37 129 127 125 275 b 163 341 219 385 288 385 b 360 385 414 338 414 222 b 414 114 367 37 277 37 z"},"r":{"x_min":0,"x_max":373,"ha":373,"o":"m 309 534 b 236 534 189 492 161 406 l 156 523 l 106 523 l 106 0 l 164 0 l 164 318 b 191 426 231 479 304 479 b 322 479 335 477 350 473 l 361 528 b 347 532 329 534 309 534 z"},"2":{"x_min":0,"x_max":479,"ha":479,"o":"m 225 676 b 145 676 86 645 33 581 l 74 551 b 114 600 158 627 222 627 b 298 627 348 577 348 498 b 348 381 290 312 43 49 l 43 0 l 418 0 l 426 51 l 111 51 b 334 286 408 369 408 501 b 408 601 339 676 225 676 z"},"{":{"x_min":0,"x_max":326,"ha":326,"o":"m 262 828 b 164 828 120 791 120 703 l 120 448 b 120 394 94 374 44 374 l 44 324 b 94 324 120 305 120 251 l 120 -4 b 120 -92 164 -129 262 -129 l 262 -85 b 198 -85 174 -61 174 -6 l 174 247 b 174 317 149 336 99 349 b 149 362 174 382 174 451 l 174 705 b 174 760 198 784 262 784 z"},"9":{"x_min":0,"x_max":518,"ha":518,"o":"m 255 676 b 141 676 53 594 53 458 b 53 328 131 248 234 248 b 304 248 360 284 397 341 b 387 163 282 79 108 26 l 123 -19 b 343 48 457 145 457 408 b 457 573 393 676 255 676 z m 244 296 b 165 296 113 352 113 457 b 113 567 168 628 257 628 b 356 628 399 553 398 396 b 357 333 310 296 244 296 z"}," ":{"x_min":0,"x_max":279,"ha":279,"o":""},"I":{"x_min":0,"x_max":282,"ha":282,"o":"m 171 685 l 111 685 l 111 0 l 171 0 z"},"H":{"x_min":0,"x_max":670,"ha":670,"o":"m 499 0 l 559 0 l 559 685 l 499 685 l 499 386 l 171 386 l 171 685 l 111 685 l 111 0 l 171 0 l 171 335 l 499 335 z"},"4":{"x_min":0,"x_max":518,"ha":518,"o":"m 483 223 l 393 223 l 393 418 l 343 418 l 337 223 l 107 223 l 297 656 l 248 676 l 45 218 l 45 175 l 336 175 l 336 0 l 393 0 l 393 175 l 483 175 z"},"~":{"x_min":0,"x_max":472,"ha":472,"o":"m 312 264 b 367 264 397 299 420 337 l 384 357 b 366 332 348 313 315 313 b 270 313 229 371 162 371 b 105 371 75 333 51 295 l 88 275 b 106 300 125 322 159 322 b 203 322 247 264 312 264 z"},"D":{"x_min":0,"x_max":632,"ha":632,"o":"m 247 685 l 111 685 l 111 0 l 258 0 b 399 0 566 64 566 348 b 566 630 406 685 247 685 z m 255 635 b 375 635 503 599 503 348 b 503 102 380 50 262 50 l 171 50 l 171 635 z"},"^":{"x_min":0,"x_max":531,"ha":531,"o":"m 290 832 l 241 832 l 56 527 l 122 527 l 265 775 l 409 527 l 474 527 z"},"0":{"x_min":0,"x_max":550,"ha":550,"o":"m 275 676 b 138 676 66 558 66 333 b 66 108 138 -11 275 -11 b 411 -11 484 107 484 332 b 484 558 412 676 275 676 z m 275 628 b 371 628 423 537 423 332 b 423 127 371 37 275 37 b 179 37 126 128 126 333 b 126 538 180 628 275 628 z"},"F":{"x_min":0,"x_max":481,"ha":481,"o":"m 453 685 l 111 685 l 111 0 l 171 0 l 171 318 l 408 318 l 408 368 l 171 368 l 171 635 l 446 635 z"},"`":{"x_min":0,"x_max":274,"ha":274,"o":"m 56 782 l 30 730 l 226 645 l 244 679 z"},"k":{"x_min":0,"x_max":488,"ha":488,"o":"m 164 743 l 106 736 l 106 0 l 164 0 z m 457 523 l 390 523 l 170 286 l 410 0 l 480 0 l 237 289 z"},"u":{"x_min":0,"x_max":579,"ha":579,"o":"m 473 523 l 415 523 l 415 144 b 379 82 331 37 262 37 b 194 37 159 72 159 155 l 159 523 l 101 523 l 101 149 b 101 46 155 -11 249 -11 b 330 -11 383 31 420 93 l 423 0 l 473 0 z"},"]":{"x_min":0,"x_max":317,"ha":317,"o":"m 233 807 l 66 807 l 66 759 l 179 759 l 179 -65 l 66 -65 l 66 -112 l 233 -112 z"},"U":{"x_min":0,"x_max":652,"ha":652,"o":"m 551 685 l 490 685 l 490 219 b 490 109 441 41 326 41 b 211 41 161 108 161 219 l 161 685 l 101 685 l 101 214 b 101 82 174 -11 326 -11 b 476 -11 551 82 551 214 z"},"o":{"x_min":0,"x_max":571,"ha":571,"o":"m 286 534 b 149 534 64 429 64 261 b 64 93 146 -11 285 -11 b 423 -11 507 94 507 263 b 507 434 425 534 286 534 z m 286 485 b 387 485 446 410 446 263 b 446 113 385 38 285 38 b 185 38 126 114 126 261 b 126 411 187 485 286 485 z"},"N":{"x_min":0,"x_max":673,"ha":673,"o":"m 562 685 l 505 685 l 505 269 b 505 180 511 95 513 66 l 188 685 l 111 685 l 111 0 l 168 0 l 168 383 b 168 506 163 572 160 619 l 483 0 l 562 0 z"},"+":{"x_min":0,"x_max":493,"ha":493,"o":"m 274 508 l 219 508 l 219 356 l 69 356 l 69 306 l 219 306 l 219 154 l 274 154 l 274 306 l 424 306 l 424 356 l 274 356 z"},"G":{"x_min":0,"x_max":618,"ha":618,"o":"m 350 696 b 207 696 66 580 66 345 b 66 108 179 -11 346 -11 b 424 -11 492 10 552 45 l 552 369 l 352 369 l 359 319 l 493 319 l 493 76 b 450 52 405 40 349 40 b 214 40 129 135 129 345 b 129 562 243 645 351 645 b 413 645 456 628 504 591 l 540 628 b 484 673 432 696 350 696 z"},"q":{"x_min":0,"x_max":580,"ha":580,"o":"m 424 523 l 420 460 b 389 498 344 534 270 534 b 141 534 64 420 64 259 b 64 93 138 -11 260 -11 b 335 -11 386 27 416 77 l 416 -197 l 474 -205 l 474 523 z m 270 37 b 181 37 126 114 126 260 b 125 407 187 486 280 486 b 343 486 385 452 416 407 l 416 133 b 381 72 339 37 270 37 z"},"d":{"x_min":0,"x_max":585,"ha":585,"o":"m 421 743 l 421 463 b 391 500 346 534 274 534 b 146 534 69 420 69 259 b 69 93 143 -11 265 -11 b 341 -11 392 28 422 80 l 429 0 l 479 0 l 479 736 z m 274 37 b 186 37 131 114 131 260 b 130 407 192 486 284 486 b 348 486 390 451 421 407 l 421 134 b 386 73 344 37 274 37 z"},"1":{"x_min":0,"x_max":413,"ha":413,"o":"m 292 665 l 242 665 l 43 542 l 70 499 l 234 601 l 234 0 l 292 0 z"},"5":{"x_min":0,"x_max":487,"ha":487,"o":"m 414 665 l 79 665 l 79 342 l 125 342 b 162 363 191 374 236 374 b 317 374 375 326 375 215 b 375 106 316 38 222 38 b 157 38 112 60 71 104 l 34 69 b 82 19 141 -11 222 -11 b 353 -11 436 83 436 214 b 436 343 363 421 249 421 b 203 421 167 408 135 390 l 135 617 l 405 617 z"}}}
